<svg width="512" height="512" viewBox="0 0 512 512" style="color:#000000" xmlns="http://www.w3.org/2000/svg" class="h-full w-full"><rect width="501" height="501" x="5.5" y="5.5" rx="43" fill="transparent" stroke="transparent" stroke-width="11" stroke-opacity="100%" paint-order="stroke"></rect><svg width="28px" height="28px" viewBox="0 0 512 512" fill="#000000" x="242" y="242" role="img" style="display:inline-block;vertical-align:middle" xmlns="http://www.w3.org/2000/svg"><g fill="#000000"><path fill="currentColor" d="M389.053 126.3A302.909 302.909 0 0 0 280.012 18.15L272 13.516l-8.012 4.634A301.084 301.084 0 0 0 113.4 279.042c0 3.445.06 6.944.177 10.4c1.592 46.856 19.511 86.283 51.82 114.018c24.724 21.225 56.438 34.182 90.607 37.273V496h32V240H256v168.528c-54.064-6.263-107.873-44.455-110.444-120.174c-.106-3.095-.16-6.228-.16-9.312A270.286 270.286 0 0 1 272 50.673a270.286 270.286 0 0 1 126.6 228.369c0 3.084-.054 6.217-.16 9.313c-2.056 60.573-36.907 97.127-78.444 112.536v33.867a156.188 156.188 0 0 0 58.607-31.3c32.309-27.735 50.228-67.162 51.82-114.017c.117-3.456.177-6.955.177-10.4A300.948 300.948 0 0 0 389.053 126.3Z"/></g></svg></svg>